<svg width="143" height="141" viewBox="0 0 143 141" fill="none" xmlns="http://www.w3.org/2000/svg">
<path d="M141.427 70.5C141.427 108.597 110.315 139.5 71.9125 139.5C33.5104 139.5 2.39795 108.597 2.39795 70.5C2.39795 32.4026 33.5104 1.5 71.9125 1.5C110.315 1.5 141.427 32.4026 141.427 70.5Z" stroke="#F5DF68" stroke-width="3"/>
<g clip-path="url(#clip0)">
<path d="M86.8106 79.7677C86.1971 79.2222 85.2545 79.2754 84.708 79.883C81.6019 83.3288 77.1228 85.3037 72.4159 85.3037C67.7105 85.3037 63.23 83.3288 60.1238 79.883C59.5743 79.2754 58.6347 79.2222 58.0213 79.7677C57.4078 80.3117 57.3571 81.2459 57.9051 81.855C61.5756 85.9261 66.8647 88.2603 72.4159 88.2603C77.9686 88.2603 83.2577 85.9246 86.9267 81.855C87.4747 81.2459 87.4226 80.3117 86.8106 79.7677Z" fill="#F5DF68"/>
<path d="M72.4161 38C53.532 38 38.168 53.2527 38.168 72C38.168 90.7473 53.532 106 72.4161 106C91.3003 106 106.664 90.7473 106.664 72C106.664 53.2527 91.3003 38 72.4161 38ZM72.4161 103.043C55.1729 103.043 41.1461 89.1183 41.1461 72C41.1461 54.8817 55.1729 40.9565 72.4161 40.9565C89.6594 40.9565 103.686 54.8817 103.686 72C103.686 89.1183 89.6594 103.043 72.4161 103.043Z" fill="#F5DF68"/>
<path d="M84.3286 61.6523C80.2232 61.6523 76.8833 64.9681 76.8833 69.0436C76.8833 69.8596 77.5504 70.5219 78.3724 70.5219C79.1943 70.5219 79.8614 69.8596 79.8614 69.0436C79.8614 66.5986 81.8657 64.6089 84.3286 64.6089C86.7914 64.6089 88.7957 66.5986 88.7957 69.0436C88.7957 69.8596 89.4628 70.5219 90.2848 70.5219C91.1067 70.5219 91.7738 69.8596 91.7738 69.0436C91.7738 64.9681 88.4339 61.6523 84.3286 61.6523Z" fill="#F5DF68"/>
<path d="M64.971 69.0436C64.971 69.8596 65.6381 70.5219 66.4601 70.5219C67.282 70.5219 67.9491 69.8596 67.9491 69.0436C67.9491 64.9681 64.6092 61.6523 60.5038 61.6523C56.3985 61.6523 53.0586 64.9681 53.0586 69.0436C53.0586 69.8596 53.7257 70.5219 54.5476 70.5219C55.3696 70.5219 56.0367 69.8596 56.0367 69.0436C56.0367 66.5986 58.041 64.6089 60.5038 64.6089C62.9667 64.6089 64.971 66.5986 64.971 69.0436Z" fill="#F5DF68"/>
</g>
<defs>
<clipPath id="clip0">
<rect x="38.168" y="38" width="68.4964" height="68" fill="white"/>
</clipPath>
</defs>
</svg>
