<svg width="143" height="141" viewBox="0 0 143 141" fill="none" xmlns="http://www.w3.org/2000/svg">
<path d="M141.427 70.5C141.427 108.597 110.315 139.5 71.9125 139.5C33.5104 139.5 2.39795 108.597 2.39795 70.5C2.39795 32.4026 33.5104 1.5 71.9125 1.5C110.315 1.5 141.427 32.4026 141.427 70.5Z" stroke="#F5DF68" stroke-width="3"/>
<g clip-path="url(#clip0)">
<path d="M94.5327 41.6953C85.621 41.6953 78.3721 48.8935 78.3721 57.7388C78.3721 58.7228 79.1747 59.5214 80.1677 59.5214C81.1607 59.5214 81.9633 58.7228 81.9633 57.7388C81.9633 50.8579 87.6034 45.2605 94.5327 45.2605C101.462 45.2605 107.102 50.8579 107.102 57.7388C107.102 64.6197 101.462 70.2171 94.5327 70.2171H29.8903C28.8992 70.2171 28.0947 71.0157 28.0947 71.9997C28.0947 72.9837 28.8992 73.7823 29.8903 73.7823H94.5327C103.444 73.7823 110.693 66.5841 110.693 57.7388C110.693 48.8935 103.444 41.6953 94.5327 41.6953Z" fill="#F5DF68"/>
<path d="M60.4159 38.1309C53.4848 38.1309 47.8466 43.7283 47.8466 50.6091C47.8466 51.5931 48.651 52.3917 49.6422 52.3917C50.6334 52.3917 51.4378 51.5931 51.4378 50.6091C51.4378 45.6945 55.4654 41.6961 60.4159 41.6961C65.3664 41.6961 69.394 45.6945 69.394 50.6091C69.394 55.5238 65.3664 59.5222 60.4159 59.5222H29.8903C28.8992 59.5222 28.0947 60.3208 28.0947 61.3048C28.0947 62.2888 28.8992 63.0874 29.8903 63.0874H60.4159C67.347 63.0874 72.9852 57.49 72.9852 50.6091C72.9852 43.7283 67.347 38.1309 60.4159 38.1309Z" fill="#F5DF68"/>
<path d="M90.9414 80.9131H29.8903C28.8992 80.9131 28.0947 81.7117 28.0947 82.6957C28.0947 83.6797 28.8992 84.4783 29.8903 84.4783H90.9414C95.892 84.4783 99.9195 88.4767 99.9195 93.3913C99.9195 98.306 95.892 102.304 90.9414 102.304C85.9909 102.304 81.9633 98.306 81.9633 93.3913C81.9633 92.4073 81.1607 91.6087 80.1677 91.6087C79.1747 91.6087 78.3721 92.4073 78.3721 93.3913C78.3721 100.272 84.0121 105.87 90.9414 105.87C97.8707 105.87 103.511 100.272 103.511 93.3913C103.511 86.5105 97.8707 80.9131 90.9414 80.9131Z" fill="#F5DF68"/>
</g>
<defs>
<clipPath id="clip0">
<rect x="28.0947" y="31" width="82.5985" height="82" fill="white"/>
</clipPath>
</defs>
</svg>
