<svg width="143" height="141" viewBox="0 0 143 141" fill="none" xmlns="http://www.w3.org/2000/svg">
<path d="M141.274 70.5C141.274 108.597 110.161 139.5 71.7592 139.5C33.3571 139.5 2.24463 108.597 2.24463 70.5C2.24463 32.4026 33.3571 1.5 71.7592 1.5C110.161 1.5 141.274 32.4026 141.274 70.5Z" stroke="#F5DF68" stroke-width="3"/>
<path d="M105.011 70.5C105.011 88.7151 90.1339 103.5 71.7591 103.5C53.3844 103.5 38.5073 88.7151 38.5073 70.5C38.5073 52.2849 53.3844 37.5 71.7591 37.5C90.1339 37.5 105.011 52.2849 105.011 70.5Z" stroke="#F5DF68" stroke-width="3"/>
<path d="M73.3234 60.9393C72.7376 60.3536 71.7878 60.3536 71.202 60.9393L61.6561 70.4853C61.0703 71.0711 61.0703 72.0208 61.6561 72.6066C62.2419 73.1924 63.1916 73.1924 63.7774 72.6066L72.2627 64.1213L80.748 72.6066C81.3338 73.1924 82.2835 73.1924 82.8693 72.6066C83.4551 72.0208 83.4551 71.0711 82.8693 70.4853L73.3234 60.9393ZM73.7627 83L73.7627 62L70.7627 62L70.7627 83L73.7627 83Z" fill="#F5DF68"/>
</svg>
