<svg width="18" height="18" viewBox="0 0 18 18" fill="none" xmlns="http://www.w3.org/2000/svg">
<path d="M0 9C0 4.02942 4.02942 0 9 0C13.9706 0 18 4.02942 18 9C18 13.9706 13.9706 18 9 18C4.02942 18 0 13.9706 0 9ZM2.62942 13.5678C4.05207 15.5484 6.37523 16.8387 9 16.8387C11.6248 16.8387 13.9479 15.5484 15.3706 13.5678C15.2566 12.5883 14.548 11.766 13.5728 11.5223L12.398 11.2286C11.452 12.0408 10.2601 12.4839 9 12.4839C7.73993 12.4839 6.54804 12.0408 5.60199 11.2286L4.42713 11.5223C3.45201 11.766 2.7434 12.5883 2.62942 13.5678ZM4.93548 7.25806C4.93548 9.50284 6.75523 11.3226 9 11.3226C11.2448 11.3226 13.0645 9.50284 13.0645 7.25806C13.0645 5.01329 11.2448 3.19355 9 3.19355C6.75523 3.19355 4.93548 5.01329 4.93548 7.25806Z" fill="white"/>
</svg>
