<svg width="60" height="60" viewBox="0 0 60 60" fill="none" xmlns="http://www.w3.org/2000/svg">
<path d="M58.2842 8.20251C57.4016 7.31833 55.9694 7.3168 55.0868 8.19876L27.9587 35.2552L18.171 24.6248C17.3252 23.7068 15.8953 23.6472 14.9757 24.4929C14.0569 25.3386 13.998 26.7692 14.8438 27.6881L26.2257 40.0491C26.6426 40.5022 27.2259 40.7653 27.841 40.778C27.8576 40.7788 27.8735 40.7788 27.8893 40.7788C28.4871 40.7788 29.0621 40.5413 29.4858 40.1192L58.2798 11.4007C59.1647 10.5188 59.1662 9.08669 58.2842 8.20251Z" fill="url(#paint0_linear)"/>
<path d="M57.7386 27.7386C56.4896 27.7386 55.4774 28.7509 55.4774 30C55.4774 44.0488 44.0488 55.4774 30 55.4774C15.952 55.4774 4.52262 44.0488 4.52262 30C4.52262 15.952 15.952 4.52262 30 4.52262C31.249 4.52262 32.2614 3.51035 32.2614 2.26137C32.2614 1.01227 31.249 0 30 0C13.4578 0 0 13.4578 0 30C0 46.5415 13.4578 60 30 60C46.5415 60 60 46.5415 60 30C60 28.751 58.9877 27.7386 57.7386 27.7386Z" fill="url(#paint1_linear)"/>
<defs>
<linearGradient id="paint0_linear" x1="36.5953" y1="7.53833" x2="36.5953" y2="40.7788" gradientUnits="userSpaceOnUse">
<stop stop-color="#F0EB76"/>
<stop offset="1" stop-color="#F5DF68"/>
</linearGradient>
<linearGradient id="paint1_linear" x1="30" y1="0" x2="30" y2="60" gradientUnits="userSpaceOnUse">
<stop stop-color="#F0EB76"/>
<stop offset="1" stop-color="#F5DF68"/>
</linearGradient>
</defs>
</svg>
