<svg width="169" height="169" viewBox="0 0 169 169" fill="none" xmlns="http://www.w3.org/2000/svg">
<circle cx="84.5" cy="84.5" r="82.5" fill="#F5DF68" stroke="white" stroke-width="4"/>
<path d="M46.5377 63.06C48.7457 63.42 50.4377 64.248 51.6137 65.544C52.7897 66.816 53.3777 68.4 53.3777 70.296C53.3777 71.76 52.9937 73.116 52.2257 74.364C51.4577 75.588 50.2817 76.572 48.6977 77.316C47.1377 78.06 45.2177 78.432 42.9377 78.432C41.1617 78.432 39.4097 78.204 37.6817 77.748C35.9777 77.268 34.5257 76.596 33.3257 75.732L35.5937 71.268C36.5537 71.988 37.6577 72.552 38.9057 72.96C40.1777 73.344 41.4737 73.536 42.7937 73.536C44.2577 73.536 45.4097 73.26 46.2497 72.708C47.0897 72.132 47.5097 71.328 47.5097 70.296C47.5097 68.232 45.9377 67.2 42.7937 67.2H40.1297V63.348L45.3137 57.48H34.5857V52.8H52.2257V56.58L46.5377 63.06ZM79.082 52.8V56.58L69.722 78H63.386L72.422 57.552H64.07V61.656H58.886V52.8H79.082ZM95.3751 78.432C93.2871 78.432 91.4271 77.916 89.7951 76.884C88.1631 75.852 86.8791 74.364 85.9431 72.42C85.0311 70.452 84.5751 68.112 84.5751 65.4C84.5751 62.688 85.0311 60.36 85.9431 58.416C86.8791 56.448 88.1631 54.948 89.7951 53.916C91.4271 52.884 93.2871 52.368 95.3751 52.368C97.4631 52.368 99.3231 52.884 100.955 53.916C102.587 54.948 103.859 56.448 104.771 58.416C105.707 60.36 106.175 62.688 106.175 65.4C106.175 68.112 105.707 70.452 104.771 72.42C103.859 74.364 102.587 75.852 100.955 76.884C99.3231 77.916 97.4631 78.432 95.3751 78.432ZM95.3751 73.5C96.9111 73.5 98.1111 72.84 98.9751 71.52C99.8631 70.2 100.307 68.16 100.307 65.4C100.307 62.64 99.8631 60.6 98.9751 59.28C98.1111 57.96 96.9111 57.3 95.3751 57.3C93.8631 57.3 92.6631 57.96 91.7751 59.28C90.9111 60.6 90.4791 62.64 90.4791 65.4C90.4791 68.16 90.9111 70.2 91.7751 71.52C92.6631 72.84 93.8631 73.5 95.3751 73.5ZM123.409 78.432C121.321 78.432 119.461 77.916 117.829 76.884C116.197 75.852 114.913 74.364 113.977 72.42C113.065 70.452 112.609 68.112 112.609 65.4C112.609 62.688 113.065 60.36 113.977 58.416C114.913 56.448 116.197 54.948 117.829 53.916C119.461 52.884 121.321 52.368 123.409 52.368C125.497 52.368 127.357 52.884 128.989 53.916C130.621 54.948 131.893 56.448 132.805 58.416C133.741 60.36 134.209 62.688 134.209 65.4C134.209 68.112 133.741 70.452 132.805 72.42C131.893 74.364 130.621 75.852 128.989 76.884C127.357 77.916 125.497 78.432 123.409 78.432ZM123.409 73.5C124.945 73.5 126.145 72.84 127.009 71.52C127.897 70.2 128.341 68.16 128.341 65.4C128.341 62.64 127.897 60.6 127.009 59.28C126.145 57.96 124.945 57.3 123.409 57.3C121.897 57.3 120.697 57.96 119.809 59.28C118.945 60.6 118.513 62.64 118.513 65.4C118.513 68.16 118.945 70.2 119.809 71.52C120.697 72.84 121.897 73.5 123.409 73.5ZM59.68 98.344C61.48 98.344 63.112 98.764 64.576 99.604C66.064 100.42 67.228 101.584 68.068 103.096C68.908 104.584 69.328 106.324 69.328 108.316C69.328 110.308 68.908 112.06 68.068 113.572C67.228 115.06 66.064 116.224 64.576 117.064C63.112 117.88 61.48 118.288 59.68 118.288C57.208 118.288 55.264 117.508 53.848 115.948V124.984H48.232V98.632H53.596V100.864C54.988 99.184 57.016 98.344 59.68 98.344ZM58.708 113.68C60.148 113.68 61.324 113.2 62.236 112.24C63.172 111.256 63.64 109.948 63.64 108.316C63.64 106.684 63.172 105.388 62.236 104.428C61.324 103.444 60.148 102.952 58.708 102.952C57.268 102.952 56.08 103.444 55.144 104.428C54.232 105.388 53.776 106.684 53.776 108.316C53.776 109.948 54.232 111.256 55.144 112.24C56.08 113.2 57.268 113.68 58.708 113.68ZM95.7407 98.632L86.9927 119.188C86.1047 121.42 85.0007 122.992 83.6807 123.904C82.3847 124.816 80.8127 125.272 78.9647 125.272C77.9567 125.272 76.9607 125.116 75.9767 124.804C74.9927 124.492 74.1887 124.06 73.5647 123.508L75.6167 119.512C76.0487 119.896 76.5407 120.196 77.0927 120.412C77.6687 120.628 78.2327 120.736 78.7847 120.736C79.5527 120.736 80.1767 120.544 80.6567 120.16C81.1367 119.8 81.5687 119.188 81.9527 118.324L82.0247 118.144L73.6367 98.632H79.4327L84.8687 111.772L90.3407 98.632H95.7407ZM113.105 99.964C114.953 99.964 116.573 100.348 117.965 101.116C119.357 101.86 120.425 102.916 121.169 104.284C121.937 105.652 122.321 107.236 122.321 109.036C122.321 110.884 121.865 112.528 120.953 113.968C120.065 115.384 118.817 116.488 117.209 117.28C115.601 118.048 113.777 118.432 111.737 118.432C108.353 118.432 105.689 117.352 103.745 115.192C101.825 113.008 100.865 109.816 100.865 105.616C100.865 101.728 101.705 98.632 103.385 96.328C105.089 94 107.693 92.476 111.197 91.756L120.413 89.92L121.169 94.744L113.033 96.364C110.825 96.796 109.181 97.516 108.101 98.524C107.045 99.532 106.421 100.96 106.229 102.808C107.069 101.896 108.077 101.2 109.253 100.72C110.429 100.216 111.713 99.964 113.105 99.964ZM111.773 114.076C113.213 114.076 114.365 113.608 115.229 112.672C116.117 111.736 116.561 110.548 116.561 109.108C116.561 107.644 116.117 106.48 115.229 105.616C114.365 104.752 113.213 104.32 111.773 104.32C110.309 104.32 109.133 104.752 108.245 105.616C107.357 106.48 106.913 107.644 106.913 109.108C106.913 110.572 107.369 111.772 108.281 112.708C109.193 113.62 110.357 114.076 111.773 114.076Z" fill="black"/>
</svg>
